STARTFONT 2.1
COMMENT 7x14 SiSheng font, IM internal use only
COMMENT This font is still under development.
COMMENT You can use, copy, modify, distribute this file for free.
COMMENT
COMMENT 94.9.14  all glyphs redesigned by Takahashi N. <ntakahas@etl.go.jp>
COMMENT 94.10.17 CHARSET_REGISTRY changed from "Sisheng_cWnn" to "OMRON_UDC_ZH"
FONT -ETL-Fixed-Medium-R-Normal--14-140-72-72-C-70-OMRON_UDC_ZH-0
SIZE 14 72 72
FONTBOUNDINGBOX 7 14 0 -2
STARTPROPERTIES 18
FONTNAME_REGISTRY ""
FOUNDRY "ETL"
FAMILY_NAME "Fixed"
WEIGHT_NAME "Medium"
SLANT "R"
SETWIDTH_NAME "Normal"
ADD_STYLE_NAME ""
PIXEL_SIZE 14
POINT_SIZE 140
RESOLUTION_X 72
RESOLUTION_Y 72
SPACING "C"
AVERAGE_WIDTH 70
CHARSET_REGISTRY "OMRON_UDC_ZH"
CHARSET_ENCODING "0"
DEFAULT_CHAR 32 
FONT_DESCENT 2
FONT_ASCENT 12
ENDPROPERTIES
CHARS 74
STARTCHAR 0020
ENCODING 32
SWIDTH 500 0
DWIDTH 7 0
BBX 7 14 0 -2
BITMAP
00
00
00
00
00
00
00
00
00
00
00
00
00
00
ENDCHAR
STARTCHAR 0021
ENCODING 33
SWIDTH 500 0
DWIDTH 7 0
BBX 7 14 0 -2
BITMAP
00
00
3c
00
00
3c
42
0e
32
42
46
3a
00
00
ENDCHAR
STARTCHAR 0022
ENCODING 34
SWIDTH 500 0
DWIDTH 7 0
BBX 7 14 0 -2
BITMAP
00
00
0c
30
00
3c
42
0e
32
42
46
3a
00
00
ENDCHAR
STARTCHAR 0023
ENCODING 35
SWIDTH 500 0
DWIDTH 7 0
BBX 7 14 0 -2
BITMAP
00
00
24
18
00
3c
42
0e
32
42
46
3a
00
00
ENDCHAR
STARTCHAR 0024
ENCODING 36
SWIDTH 500 0
DWIDTH 7 0
BBX 7 14 0 -2
BITMAP
00
00
30
0c
00
3c
42
0e
32
42
46
3a
00
00
ENDCHAR
STARTCHAR 0025
ENCODING 37
SWIDTH 500 0
DWIDTH 7 0
BBX 7 14 0 -2
BITMAP
00
00
3c
00
00
3c
42
42
7e
40
42
3c
00
00
ENDCHAR
STARTCHAR 0026
ENCODING 38
SWIDTH 500 0
DWIDTH 7 0
BBX 7 14 0 -2
BITMAP
00
00
0c
30
00
3c
42
42
7e
40
42
3c
00
00
ENDCHAR
STARTCHAR 0027
ENCODING 39
SWIDTH 500 0
DWIDTH 7 0
BBX 7 14 0 -2
BITMAP
00
00
24
18
00
3c
42
42
7e
40
42
3c
00
00
ENDCHAR
STARTCHAR 0028
ENCODING 40
SWIDTH 500 0
DWIDTH 7 0
BBX 7 14 0 -2
BITMAP
00
00
30
0c
00
3c
42
42
7e
40
42
3c
00
00
ENDCHAR
STARTCHAR 0029
ENCODING 41
SWIDTH 500 0
DWIDTH 7 0
BBX 7 14 0 -2
BITMAP
00
00
78
00
00
30
10
10
10
10
10
7c
00
00
ENDCHAR
STARTCHAR 002a
ENCODING 42
SWIDTH 500 0
DWIDTH 7 0
BBX 7 14 0 -2
BITMAP
00
00
18
60
00
30
10
10
10
10
10
7c
00
00
ENDCHAR
STARTCHAR 002b
ENCODING 43
SWIDTH 500 0
DWIDTH 7 0
BBX 7 14 0 -2
BITMAP
00
00
48
30
00
30
10
10
10
10
10
7c
00
00
ENDCHAR
STARTCHAR 002c
ENCODING 44
SWIDTH 500 0
DWIDTH 7 0
BBX 7 14 0 -2
BITMAP
00
00
60
18
00
30
10
10
10
10
10
7c
00
00
ENDCHAR
STARTCHAR 002d
ENCODING 45
SWIDTH 500 0
DWIDTH 7 0
BBX 7 14 0 -2
BITMAP
00
00
3c
00
00
3c
42
42
42
42
42
3c
00
00
ENDCHAR
STARTCHAR 002e
ENCODING 46
SWIDTH 500 0
DWIDTH 7 0
BBX 7 14 0 -2
BITMAP
00
00
0c
30
00
3c
42
42
42
42
42
3c
00
00
ENDCHAR
STARTCHAR 002f
ENCODING 47
SWIDTH 500 0
DWIDTH 7 0
BBX 7 14 0 -2
BITMAP
00
00
24
18
00
3c
42
42
42
42
42
3c
00
00
ENDCHAR
STARTCHAR 0030
ENCODING 48
SWIDTH 500 0
DWIDTH 7 0
BBX 7 14 0 -2
BITMAP
00
00
30
0c
00
3c
42
42
42
42
42
3c
00
00
ENDCHAR
STARTCHAR 0031
ENCODING 49
SWIDTH 500 0
DWIDTH 7 0
BBX 7 14 0 -2
BITMAP
00
00
3c
00
00
42
42
42
42
42
46
3a
00
00
ENDCHAR
STARTCHAR 0032
ENCODING 50
SWIDTH 500 0
DWIDTH 7 0
BBX 7 14 0 -2
BITMAP
00
00
0c
30
00
42
42
42
42
42
46
3a
00
00
ENDCHAR
STARTCHAR 0033
ENCODING 51
SWIDTH 500 0
DWIDTH 7 0
BBX 7 14 0 -2
BITMAP
00
00
24
18
00
42
42
42
42
42
46
3a
00
00
ENDCHAR
STARTCHAR 0034
ENCODING 52
SWIDTH 500 0
DWIDTH 7 0
BBX 7 14 0 -2
BITMAP
00
00
30
0c
00
42
42
42
42
42
46
3a
00
00
ENDCHAR
STARTCHAR 0035
ENCODING 53
SWIDTH 500 0
DWIDTH 7 0
BBX 7 14 0 -2
BITMAP
3c
00
00
24
00
42
42
42
42
42
46
3a
00
00
ENDCHAR
STARTCHAR 0036
ENCODING 54
SWIDTH 500 0
DWIDTH 7 0
BBX 7 14 0 -2
BITMAP
0c
30
00
24
00
42
42
42
42
42
46
3a
00
00
ENDCHAR
STARTCHAR 0037
ENCODING 55
SWIDTH 500 0
DWIDTH 7 0
BBX 7 14 0 -2
BITMAP
24
18
00
24
00
42
42
42
42
42
46
3a
00
00
ENDCHAR
STARTCHAR 0038
ENCODING 56
SWIDTH 500 0
DWIDTH 7 0
BBX 7 14 0 -2
BITMAP
30
0c
00
24
00
42
42
42
42
42
46
3a
00
00
ENDCHAR
STARTCHAR 0039
ENCODING 57
SWIDTH 500 0
DWIDTH 7 0
BBX 7 14 0 -2
BITMAP
00
00
00
24
00
42
42
42
42
42
46
3a
00
00
ENDCHAR
STARTCHAR 003a
ENCODING 58
SWIDTH 500 0
DWIDTH 7 0
BBX 7 14 0 -2
BITMAP
00
00
18
24
00
3c
42
42
7e
40
42
3c
00
00
ENDCHAR
STARTCHAR 003b
ENCODING 59
SWIDTH 500 0
DWIDTH 7 0
BBX 7 14 0 -2
BITMAP
00
00
00
00
00
00
00
00
00
00
00
00
00
00
ENDCHAR
STARTCHAR 003c
ENCODING 60
SWIDTH 500 0
DWIDTH 7 0
BBX 7 14 0 -2
BITMAP
00
00
18
60
00
68
54
54
54
54
54
44
00
00
ENDCHAR
STARTCHAR 003d
ENCODING 61
SWIDTH 500 0
DWIDTH 7 0
BBX 7 14 0 -2
BITMAP
00
00
0c
30
00
5c
62
42
42
42
42
42
00
00
ENDCHAR
STARTCHAR 003e
ENCODING 62
SWIDTH 500 0
DWIDTH 7 0
BBX 7 14 0 -2
BITMAP
00
00
24
18
00
5c
62
42
42
42
42
42
00
00
ENDCHAR
STARTCHAR 003f
ENCODING 63
SWIDTH 500 0
DWIDTH 7 0
BBX 7 14 0 -2
BITMAP
00
00
30
0c
00
5c
62
42
42
42
42
42
00
00
ENDCHAR
STARTCHAR 0040
ENCODING 64
SWIDTH 500 0
DWIDTH 7 0
BBX 7 14 0 -2
BITMAP
00
00
00
00
00
00
00
00
00
00
00
00
00
00
ENDCHAR
STARTCHAR 0041
ENCODING 65
SWIDTH 500 0
DWIDTH 7 0
BBX 7 14 0 -2
BITMAP
00
00
3c
00
00
00
00
00
00
00
00
00
00
00
ENDCHAR
STARTCHAR 0042
ENCODING 66
SWIDTH 500 0
DWIDTH 7 0
BBX 7 14 0 -2
BITMAP
00
00
0c
30
00
00
00
00
00
00
00
00
00
00
ENDCHAR
STARTCHAR 0043
ENCODING 67
SWIDTH 500 0
DWIDTH 7 0
BBX 7 14 0 -2
BITMAP
00
00
24
18
00
00
00
00
00
00
00
00
00
00
ENDCHAR
STARTCHAR 0044
ENCODING 68
SWIDTH 500 0
DWIDTH 7 0
BBX 7 14 0 -2
BITMAP
00
00
30
0c
00
00
00
00
00
00
00
00
00
00
ENDCHAR
STARTCHAR 0045
ENCODING 69
SWIDTH 500 0
DWIDTH 7 0
BBX 7 14 0 -2
BITMAP
00
00
00
20
40
7e
02
02
04
04
08
08
00
00
ENDCHAR
STARTCHAR 0046
ENCODING 70
SWIDTH 500 0
DWIDTH 7 0
BBX 7 14 0 -2
BITMAP
00
00
00
20
40
7e
02
22
14
08
14
62
00
00
ENDCHAR
STARTCHAR 0047
ENCODING 71
SWIDTH 500 0
DWIDTH 7 0
BBX 7 14 0 -2
BITMAP
00
00
00
7e
42
42
42
42
42
42
42
42
00
00
ENDCHAR
STARTCHAR 0048
ENCODING 72
SWIDTH 500 0
DWIDTH 7 0
BBX 7 14 0 -2
BITMAP
00
00
00
7e
40
40
40
40
40
40
40
7e
00
00
ENDCHAR
STARTCHAR 0049
ENCODING 73
SWIDTH 500 0
DWIDTH 7 0
BBX 7 14 0 -2
BITMAP
00
00
00
20
40
7e
12
12
24
24
48
48
00
00
ENDCHAR
STARTCHAR 004a
ENCODING 74
SWIDTH 500 0
DWIDTH 7 0
BBX 7 14 0 -2
BITMAP
00
00
00
10
10
7e
10
10
22
22
4e
72
00
00
ENDCHAR
STARTCHAR 004b
ENCODING 75
SWIDTH 500 0
DWIDTH 7 0
BBX 7 14 0 -2
BITMAP
00
00
00
3c
04
08
1e
02
02
02
04
18
00
00
ENDCHAR
STARTCHAR 004c
ENCODING 76
SWIDTH 500 0
DWIDTH 7 0
BBX 7 14 0 -2
BITMAP
00
00
00
28
48
7e
12
12
24
24
48
48
00
00
ENDCHAR
STARTCHAR 004d
ENCODING 77
SWIDTH 500 0
DWIDTH 7 0
BBX 7 14 0 -2
BITMAP
00
00
00
12
12
24
24
48
24
24
12
12
00
00
ENDCHAR
STARTCHAR 004e
ENCODING 78
SWIDTH 500 0
DWIDTH 7 0
BBX 7 14 0 -2
BITMAP
00
00
00
7e
10
20
3e
02
02
04
04
18
00
00
ENDCHAR
STARTCHAR 004f
ENCODING 79
SWIDTH 500 0
DWIDTH 7 0
BBX 7 14 0 -2
BITMAP
00
00
00
3e
20
20
20
20
20
40
40
40
00
00
ENDCHAR
STARTCHAR 0050
ENCODING 80
SWIDTH 500 0
DWIDTH 7 0
BBX 7 14 0 -2
BITMAP
00
00
00
02
22
22
26
2a
32
02
02
02
00
00
ENDCHAR
STARTCHAR 0051
ENCODING 81
SWIDTH 500 0
DWIDTH 7 0
BBX 7 14 0 -2
BITMAP
00
00
00
02
04
08
10
20
10
08
04
02
00
00
ENDCHAR
STARTCHAR 0052
ENCODING 82
SWIDTH 500 0
DWIDTH 7 0
BBX 7 14 0 -2
BITMAP
00
00
00
7c
10
10
10
10
10
10
10
10
00
00
ENDCHAR
STARTCHAR 0053
ENCODING 83
SWIDTH 500 0
DWIDTH 7 0
BBX 7 14 0 -2
BITMAP
00
00
00
10
54
54
54
54
7c
10
10
7c
00
00
ENDCHAR
STARTCHAR 0054
ENCODING 84
SWIDTH 500 0
DWIDTH 7 0
BBX 7 14 0 -2
BITMAP
00
00
00
0c
30
4c
30
50
10
10
10
10
00
00
ENDCHAR
STARTCHAR 0055
ENCODING 85
SWIDTH 500 0
DWIDTH 7 0
BBX 7 14 0 -2
BITMAP
00
00
00
3e
02
02
3e
20
20
20
40
40
00
00
ENDCHAR
STARTCHAR 0056
ENCODING 86
SWIDTH 500 0
DWIDTH 7 0
BBX 7 14 0 -2
BITMAP
00
00
00
7e
42
42
52
5a
4a
42
42
7e
00
00
ENDCHAR
STARTCHAR 0057
ENCODING 87
SWIDTH 500 0
DWIDTH 7 0
BBX 7 14 0 -2
BITMAP
00
00
00
7c
44
44
44
44
64
5c
40
40
00
00
ENDCHAR
STARTCHAR 0058
ENCODING 88
SWIDTH 500 0
DWIDTH 7 0
BBX 7 14 0 -2
BITMAP
00
00
00
08
7e
10
20
3e
02
02
04
18
00
00
ENDCHAR
STARTCHAR 0059
ENCODING 89
SWIDTH 500 0
DWIDTH 7 0
BBX 7 14 0 -2
BITMAP
00
00
00
10
10
10
20
20
22
42
4e
72
00
00
ENDCHAR
STARTCHAR 005a
ENCODING 90
SWIDTH 500 0
DWIDTH 7 0
BBX 7 14 0 -2
BITMAP
00
00
00
44
44
44
28
38
10
10
10
10
00
00
ENDCHAR
STARTCHAR 005b
ENCODING 91
SWIDTH 500 0
DWIDTH 7 0
BBX 7 14 0 -2
BITMAP
00
00
00
7e
10
10
10
30
42
42
42
3c
00
00
ENDCHAR
STARTCHAR 005c
ENCODING 92
SWIDTH 500 0
DWIDTH 7 0
BBX 7 14 0 -2
BITMAP
00
00
00
10
7c
10
10
30
42
42
42
3c
00
00
ENDCHAR
STARTCHAR 005d
ENCODING 93
SWIDTH 500 0
DWIDTH 7 0
BBX 7 14 0 -2
BITMAP
00
00
00
24
26
3c
64
24
24
20
20
3c
00
00
ENDCHAR
STARTCHAR 005e
ENCODING 94
SWIDTH 500 0
DWIDTH 7 0
BBX 7 14 0 -2
BITMAP
00
00
00
7e
24
48
7e
12
12
24
24
48
00
00
ENDCHAR
STARTCHAR 005f
ENCODING 95
SWIDTH 500 0
DWIDTH 7 0
BBX 7 14 0 -2
BITMAP
00
00
00
70
10
10
10
10
10
10
08
04
00
00
ENDCHAR
STARTCHAR 0060
ENCODING 96
SWIDTH 500 0
DWIDTH 7 0
BBX 7 14 0 -2
BITMAP
00
00
00
10
20
44
28
10
20
42
4e
72
00
00
ENDCHAR
STARTCHAR 0061
ENCODING 97
SWIDTH 500 0
DWIDTH 7 0
BBX 7 14 0 -2
BITMAP
00
00
00
7e
02
02
24
14
08
0c
12
20
00
00
ENDCHAR
STARTCHAR 0062
ENCODING 98
SWIDTH 500 0
DWIDTH 7 0
BBX 7 14 0 -2
BITMAP
00
00
00
7c
24
48
7e
02
02
04
04
18
00
00
ENDCHAR
STARTCHAR 0063
ENCODING 99
SWIDTH 500 0
DWIDTH 7 0
BBX 7 14 0 -2
BITMAP
00
00
00
10
20
40
40
7e
02
02
04
08
00
00
ENDCHAR
STARTCHAR 0064
ENCODING 100
SWIDTH 500 0
DWIDTH 7 0
BBX 7 14 0 -2
BITMAP
00
00
00
08
08
7e
18
18
28
28
48
46
00
00
ENDCHAR
STARTCHAR 0065
ENCODING 101
SWIDTH 500 0
DWIDTH 7 0
BBX 7 14 0 -2
BITMAP
00
00
00
10
10
20
20
20
40
40
46
78
00
00
ENDCHAR
STARTCHAR 0066
ENCODING 102
SWIDTH 500 0
DWIDTH 7 0
BBX 7 14 0 -2
BITMAP
00
00
00
14
14
14
14
14
14
24
24
46
00
00
ENDCHAR
STARTCHAR 0067
ENCODING 103
SWIDTH 500 0
DWIDTH 7 0
BBX 7 14 0 -2
BITMAP
00
00
00
10
10
10
10
10
10
10
10
10
00
00
ENDCHAR
STARTCHAR 0068
ENCODING 104
SWIDTH 500 0
DWIDTH 7 0
BBX 7 14 0 -2
BITMAP
00
00
00
04
04
48
28
10
18
24
22
40
00
00
ENDCHAR
STARTCHAR 0069
ENCODING 105
SWIDTH 500 0
DWIDTH 7 0
BBX 7 14 0 -2
BITMAP
00
00
00
42
42
42
42
42
42
42
42
7e
00
00
ENDCHAR
ENDFONT
